# 3ds Max Wavefront OBJ Exporter v0.97b - (c)2007 guruware
# File Created: 19.04.2017 17:14:01

mtllib teapot.mtl

#
# object Teapot001
#

v  3.500000 0.000000 6.000000
v  2.485000 -2.485000 6.000000
v  2.490547 -2.490547 6.246094
v  3.507813 0.000000 6.246094
v  2.662500 -2.662500 6.000000
v  3.750000 0.000000 6.000000
v  0.000000 -3.500000 6.000000
v  0.000000 -3.507813 6.246094
v  0.000000 -3.750000 6.000000
v  -2.569375 -2.485000 6.000000
v  -2.501094 -2.490547 6.246094
v  -2.662500 -2.662500 6.000000
v  -3.500000 0.000000 6.000000
v  -3.507813 0.000000 6.246094
v  -3.750000 0.000000 6.000000
v  -2.485000 2.485000 6.000000
v  -2.490547 2.490547 6.246094
v  -2.662500 2.662500 6.000000
v  0.000000 3.500000 6.000000
v  0.000000 3.507813 6.246094
v  0.000000 3.750000 6.000000
v  2.485000 2.485000 6.000000
v  2.490547 2.490547 6.246094
v  2.662500 2.662500 6.000000
v  3.272656 -3.272656 4.054688
v  4.609375 0.000000 4.054688
v  3.550000 -3.550000 2.250000
v  5.000000 0.000000 2.250000
v  0.000000 -4.609375 4.054688
v  0.000000 -5.000000 2.250000
v  -3.272656 -3.272656 4.054688
v  -3.550000 -3.550000 2.250000
v  -4.609375 0.000000 4.054688
v  -5.000000 0.000000 2.250000
v  -3.272656 3.272656 4.054688
v  -3.550000 3.550000 2.250000
v  0.000000 4.609375 4.054688
v  0.000000 5.000000 2.250000
v  3.272656 3.272656 4.054688
v  3.550000 3.550000 2.250000
v  3.106250 -3.106250 0.960938
v  4.375000 0.000000 0.960938
v  2.662500 -2.662500 0.375000
v  3.750000 0.000000 0.375000
v  0.000000 -4.375000 0.960938
v  0.000000 -3.750000 0.375000
v  -3.106250 -3.106250 0.960938
v  -2.662500 -2.662500 0.375000
v  -4.375000 0.000000 0.960938
v  -3.750000 0.000000 0.375000
v  -3.106250 3.106250 0.960938
v  -2.662500 2.662500 0.375000
v  0.000000 4.375000 0.960938
v  0.000000 3.750000 0.375000
v  3.106250 3.106250 0.960938
v  2.662500 2.662500 0.375000
v  2.279766 -2.279766 0.117188
v  3.210938 0.000000 0.117188
v  0.000000 0.000000 0.000000
v  0.000000 -3.210938 0.117188
v  -2.279766 -2.279766 0.117188
v  -3.210938 0.000000 0.117188
v  -2.279766 2.279766 0.117188
v  0.000000 3.210938 0.117188
v  2.279766 2.279766 0.117188
v  -4.000000 0.000000 5.062500
v  -3.875000 -0.562500 5.343750
v  -6.296875 -0.562500 5.238281
v  -6.031250 0.000000 4.992188
v  -7.125000 -0.562500 4.500000
v  -6.750000 0.000000 4.500000
v  -3.750000 0.000000 5.625000
v  -6.562500 0.000000 5.484375
v  -7.500000 0.000000 4.500000
v  -3.875000 0.562500 5.343750
v  -6.296875 0.562500 5.238281
v  -7.125000 0.562500 4.500000
v  -6.585938 -0.562500 3.134766
v  -6.343750 0.000000 3.375000
v  -4.875000 -0.562500 1.875000
v  -6.828125 0.000000 2.894531
v  -4.750000 0.000000 1.500000
v  -6.585938 0.562500 3.134766
v  -4.875000 0.562500 1.875000
v  4.250000 0.000000 3.562500
v  4.250000 -1.237500 2.531250
v  6.343750 -0.853125 4.054688
v  5.968750 0.000000 4.500000
v  7.500000 -0.468750 6.000000
v  6.750000 0.000000 6.000000
v  4.250000 0.000000 1.500000
v  6.718750 0.000000 3.609375
v  8.250000 0.000000 6.000000
v  4.250000 1.237500 2.531250
v  6.343750 0.853125 4.054688
v  7.500000 0.468750 6.000000
v  7.816406 -0.375000 6.166992
v  7.062500 0.000000 6.140625
v  7.500000 -0.281250 6.000000
v  7.000000 0.000000 6.000000
v  8.570313 0.000000 6.193359
v  8.000000 0.000000 6.000000
v  7.816406 0.375000 6.166992
v  7.500000 0.281250 6.000000
v  0.000000 0.000000 7.875000
v  0.577578 -0.577578 7.453125
v  0.812500 0.000000 7.453125
v  0.355000 -0.355000 6.750001
v  0.500000 0.000000 6.750000
v  0.000000 -0.812500 7.453125
v  0.000000 -0.500000 6.750000
v  -0.577578 -0.577578 7.453125
v  -0.355000 -0.355000 6.750001
v  -0.812500 0.000000 7.453125
v  -0.500000 0.000000 6.750000
v  -0.577578 0.577578 7.453125
v  -0.355000 0.355000 6.750001
v  0.000000 0.812500 7.453125
v  0.000000 0.500000 6.750000
v  0.577578 0.577578 7.453125
v  0.355000 0.355000 6.750001
v  1.464375 -1.464375 6.374999
v  2.062500 0.000000 6.375000
v  2.307500 -2.307500 6.000000
v  3.250000 0.000000 6.000000
v  0.000000 -2.062500 6.375000
v  0.000000 -3.250000 6.000000
v  -1.464375 -1.464375 6.374999
v  -2.307500 -2.307500 6.000000
v  -2.062500 0.000000 6.375000
v  -3.250000 0.000000 6.000000
v  -1.464375 1.464375 6.374999
v  -2.307500 2.307500 6.000000
v  0.000000 2.062500 6.375000
v  0.000000 3.250000 6.000000
v  1.464375 1.464375 6.374999
v  2.307500 2.307500 6.000000
# 137 vertices

vn -0.999496 -0.000000 0.031730
vn -0.706748 0.706748 0.031860
vn -0.096606 0.096606 0.990623
vn -0.141648 0.000000 0.989917
vn 0.593558 -0.593558 0.543487
vn 0.840037 0.000000 0.542529
vn -0.001034 0.999599 0.028304
vn -0.000769 0.142052 0.989859
vn 0.000000 -0.840037 0.542529
vn 0.726817 0.663562 -0.177262
vn 0.081564 0.216533 0.972862
vn -0.594879 -0.597089 0.538149
vn 0.999387 -0.014822 0.031727
vn 0.149637 -0.013449 0.988650
vn -0.840258 0.000445 0.542187
vn 0.706748 -0.706748 0.031860
vn 0.096606 -0.096606 0.990623
vn -0.593558 0.593558 0.543487
vn 0.000000 -0.999496 0.031730
vn -0.000000 -0.141648 0.989917
vn -0.000000 0.840037 0.542529
vn -0.706748 -0.706748 0.031860
vn -0.096606 -0.096606 0.990623
vn 0.593558 0.593558 0.543487
vn 0.673784 -0.673784 0.303366
vn 0.953164 -0.000000 0.302454
vn 0.702762 -0.702762 -0.110681
vn 0.993872 -0.000000 -0.110538
vn -0.000000 -0.953164 0.302454
vn -0.000000 -0.993872 -0.110538
vn -0.673784 -0.673784 0.303366
vn -0.702762 -0.702762 -0.110681
vn -0.953164 0.000000 0.302454
vn -0.993872 0.000000 -0.110538
vn -0.673784 0.673784 0.303366
vn -0.702762 0.702762 -0.110681
vn 0.000000 0.953164 0.302454
vn 0.000000 0.993872 -0.110538
vn 0.673784 0.673784 0.303366
vn 0.702762 0.702762 -0.110681
vn 0.579248 -0.579248 -0.573536
vn 0.819839 0.000000 -0.572594
vn 0.415716 -0.415716 -0.808925
vn 0.588794 -0.000000 -0.808283
vn 0.000000 -0.819839 -0.572594
vn -0.000000 -0.588794 -0.808283
vn -0.579248 -0.579248 -0.573536
vn -0.415716 -0.415716 -0.808925
vn -0.819839 -0.000000 -0.572594
vn -0.588794 0.000000 -0.808283
vn -0.579248 0.579248 -0.573536
vn -0.415716 0.415716 -0.808925
vn -0.000000 0.819839 -0.572594
vn 0.000000 0.588794 -0.808283
vn 0.579248 0.579248 -0.573536
vn 0.415716 0.415716 -0.808925
vn 0.201646 -0.201646 -0.958477
vn 0.285015 -0.000000 -0.958523
vn 0.000000 -0.000000 -1.000000
vn -0.000000 -0.285015 -0.958523
vn -0.201646 -0.201646 -0.958477
vn -0.285015 0.000000 -0.958523
vn -0.201646 0.201646 -0.958477
vn 0.000000 0.285015 -0.958523
vn 0.201646 0.201646 -0.958477
vn 0.038390 0.003058 -0.999258
vn -0.018193 -0.961924 0.272710
vn -0.018992 -0.978643 0.204687
vn 0.281686 0.014480 -0.959397
vn -0.293828 -0.947460 0.126432
vn 0.932366 0.042185 -0.359046
vn -0.047290 -0.001457 0.998880
vn -0.442047 -0.012655 0.896903
vn -0.985924 -0.010582 0.166857
vn -0.017731 0.963107 0.268533
vn -0.009702 0.983877 0.178581
vn -0.273478 0.956526 0.101336
vn -0.121683 -0.987543 -0.099759
vn 0.817643 0.013826 0.575559
vn -0.335204 -0.794643 -0.506144
vn 0.621561 0.029442 0.782812
vn -0.774725 -0.007881 -0.632250
vn -0.571121 -0.007601 -0.820830
vn -0.105522 0.990435 -0.088905
vn -0.300910 0.820018 -0.486852
vn -0.486184 0.007354 0.873825
vn 0.327085 -0.914482 -0.238199
vn 0.159486 -0.986894 0.024569
vn -0.696953 -0.023629 0.716727
vn -0.006241 -0.924453 0.381245
vn -0.723399 -0.056234 0.688136
vn 0.653760 0.002465 -0.756698
vn 0.767720 0.017286 -0.640552
vn 0.646517 0.044723 -0.761588
vn 0.345598 0.908651 -0.234339
vn 0.184537 0.982792 0.008105
vn 0.050562 0.947598 0.315439
vn 0.231874 -0.582112 0.779346
vn 0.041549 -0.070435 0.996651
vn 0.315815 0.947733 -0.045425
vn 0.901102 -0.013526 -0.433395
vn 0.953305 0.037147 0.299716
vn -0.321861 0.003245 0.946782
vn 0.365546 0.578293 0.729351
vn 0.339409 -0.933289 -0.117358
vn 0.000000 0.000000 1.000000
vn 0.677434 -0.677260 0.287058
vn 0.957556 -0.000123 0.288247
vn 0.595504 -0.595158 0.539595
vn 0.843578 -0.000244 0.537007
vn -0.000123 -0.957556 0.288247
vn -0.000244 -0.843578 0.537007
vn -0.677260 -0.677434 0.287058
vn -0.595158 -0.595504 0.539595
vn -0.957556 0.000123 0.288247
vn -0.843578 0.000244 0.537007
vn -0.677434 0.677260 0.287058
vn -0.595504 0.595158 0.539595
vn 0.000123 0.957556 0.288247
vn 0.000244 0.843578 0.537007
vn 0.677260 0.677434 0.287058
vn 0.595158 0.595504 0.539595
vn 0.194166 -0.194166 0.961561
vn 0.275423 0.000000 0.961323
vn 0.212142 -0.212142 0.953935
vn 0.301131 0.000000 0.953583
vn 0.000000 -0.275423 0.961323
vn 0.000000 -0.301131 0.953583
vn -0.194166 -0.194166 0.961561
vn -0.212142 -0.212142 0.953935
vn -0.275423 -0.000000 0.961323
vn -0.301131 -0.000000 0.953583
vn -0.194166 0.194166 0.961561
vn -0.212142 0.212142 0.953935
vn -0.000000 0.275423 0.961323
vn -0.000000 0.301131 0.953583
vn 0.194166 0.194166 0.961561
vn 0.212142 0.212142 0.953935
# 138 vertex normals

vt 2.000000 2.000000 0.000000
vt 1.500000 2.000000 0.000000
vt 1.500000 1.950000 0.000000
vt 2.000000 1.950000 0.000000
vt 1.500000 1.900000 0.000000
vt 2.000000 1.900000 0.000000
vt 1.000000 2.000000 0.000000
vt 1.000000 1.950000 0.000000
vt 1.000000 1.900000 0.000000
vt 0.500000 2.000000 0.000000
vt 0.500000 1.950000 0.000000
vt 0.500000 1.900000 0.000000
vt 0.000000 2.000000 0.000000
vt 0.000000 1.950000 0.000000
vt 0.000000 1.900000 0.000000
vt 1.500000 1.450000 0.000000
vt 2.000000 1.450000 0.000000
vt 1.500000 1.000000 0.000000
vt 2.000000 1.000000 0.000000
vt 1.000000 1.450000 0.000000
vt 1.000000 1.000000 0.000000
vt 0.500000 1.450000 0.000000
vt 0.500000 1.000000 0.000000
vt 0.000000 1.450000 0.000000
vt 0.000000 1.000000 0.000000
vt 1.500000 0.700000 0.000000
vt 2.000000 0.700000 0.000000
vt 1.500000 0.400000 0.000000
vt 2.000000 0.400000 0.000000
vt 1.000000 0.700000 0.000000
vt 1.000000 0.400000 0.000000
vt 0.500000 0.700000 0.000000
vt 0.500000 0.400000 0.000000
vt 0.000000 0.700000 0.000000
vt 0.000000 0.400000 0.000000
vt 1.500000 0.200000 0.000000
vt 2.000000 0.200000 0.000000
vt 1.500000 0.000000 0.000000
vt 2.000000 0.000000 0.000000
vt 1.000000 0.200000 0.000000
vt 1.000000 0.000000 0.000000
vt 0.500000 0.200000 0.000000
vt 0.500000 0.000000 0.000000
vt 0.000000 0.200000 0.000000
vt 0.000000 0.000000 0.000000
vt 0.750000 1.000000 0.000000
vt 0.750000 0.750000 0.000000
vt 1.000000 0.750000 0.000000
vt 0.750000 0.500000 0.000000
vt 1.000000 0.500000 0.000000
vt 0.500000 0.750000 0.000000
vt 0.500000 0.500000 0.000000
vt 0.250000 1.000000 0.000000
vt 0.250000 0.750000 0.000000
vt 0.250000 0.500000 0.000000
vt 0.000000 0.750000 0.000000
vt 0.000000 0.500000 0.000000
vt 0.750000 0.250000 0.000000
vt 1.000000 0.250000 0.000000
vt 0.750000 0.000000 0.000000
vt 0.500000 0.250000 0.000000
vt 0.250000 0.250000 0.000000
vt 0.250000 0.000000 0.000000
vt 0.000000 0.250000 0.000000
vt 0.750000 0.450000 0.000000
vt 0.500000 0.450000 0.000000
vt 0.750000 0.900000 0.000000
vt 0.500000 0.900000 0.000000
vt 1.000000 0.450000 0.000000
vt 1.000000 0.900000 0.000000
vt 0.250000 0.450000 0.000000
vt 0.000000 0.450000 0.000000
vt 0.250000 0.900000 0.000000
vt 0.000000 0.900000 0.000000
vt 0.750000 0.950000 0.000000
vt 0.500000 0.950000 0.000000
vt 1.000000 0.950000 0.000000
vt 0.250000 0.950000 0.000000
vt 0.000000 0.950000 0.000000
# 79 texture coords

g Teapot001
usemtl wire_088177027
f 1/1/1 2/2/2 3/3/3 
f 3/3/3 4/4/4 1/1/1 
f 4/4/4 3/3/3 5/5/5 
f 5/5/5 6/6/6 4/4/4 
f 2/2/2 7/7/7 8/8/8 
f 8/8/8 3/3/3 2/2/2 
f 3/3/3 8/8/8 9/9/9 
f 9/9/9 5/5/5 3/3/3 
f 7/7/7 10/10/10 11/11/11 
f 11/11/11 8/8/8 7/7/7 
f 8/8/8 11/11/11 12/12/12 
f 12/12/12 9/9/9 8/8/8 
f 10/10/10 13/13/13 14/14/14 
f 14/14/14 11/11/11 10/10/10 
f 11/11/11 14/14/14 15/15/15 
f 15/15/15 12/12/12 11/11/11 
f 13/1/13 16/2/16 17/3/17 
f 17/3/17 14/4/14 13/1/13 
f 14/4/14 17/3/17 18/5/18 
f 18/5/18 15/6/15 14/4/14 
f 16/2/16 19/7/19 20/8/20 
f 20/8/20 17/3/17 16/2/16 
f 17/3/17 20/8/20 21/9/21 
f 21/9/21 18/5/18 17/3/17 
f 19/7/19 22/10/22 23/11/23 
f 23/11/23 20/8/20 19/7/19 
f 20/8/20 23/11/23 24/12/24 
f 24/12/24 21/9/21 20/8/20 
f 22/10/22 1/13/1 4/14/4 
f 4/14/4 23/11/23 22/10/22 
f 23/11/23 4/14/4 6/15/6 
f 6/15/6 24/12/24 23/11/23 
f 6/6/6 5/5/5 25/16/25 
f 25/16/25 26/17/26 6/6/6 
f 26/17/26 25/16/25 27/18/27 
f 27/18/27 28/19/28 26/17/26 
f 5/5/5 9/9/9 29/20/29 
f 29/20/29 25/16/25 5/5/5 
f 25/16/25 29/20/29 30/21/30 
f 30/21/30 27/18/27 25/16/25 
f 9/9/9 12/12/12 31/22/31 
f 31/22/31 29/20/29 9/9/9 
f 29/20/29 31/22/31 32/23/32 
f 32/23/32 30/21/30 29/20/29 
f 12/12/12 15/15/15 33/24/33 
f 33/24/33 31/22/31 12/12/12 
f 31/22/31 33/24/33 34/25/34 
f 34/25/34 32/23/32 31/22/31 
f 15/6/15 18/5/18 35/16/35 
f 35/16/35 33/17/33 15/6/15 
f 33/17/33 35/16/35 36/18/36 
f 36/18/36 34/19/34 33/17/33 
f 18/5/18 21/9/21 37/20/37 
f 37/20/37 35/16/35 18/5/18 
f 35/16/35 37/20/37 38/21/38 
f 38/21/38 36/18/36 35/16/35 
f 21/9/21 24/12/24 39/22/39 
f 39/22/39 37/20/37 21/9/21 
f 37/20/37 39/22/39 40/23/40 
f 40/23/40 38/21/38 37/20/37 
f 24/12/24 6/15/6 26/24/26 
f 26/24/26 39/22/39 24/12/24 
f 39/22/39 26/24/26 28/25/28 
f 28/25/28 40/23/40 39/22/39 
f 28/19/28 27/18/27 41/26/41 
f 41/26/41 42/27/42 28/19/28 
f 42/27/42 41/26/41 43/28/43 
f 43/28/43 44/29/44 42/27/42 
f 27/18/27 30/21/30 45/30/45 
f 45/30/45 41/26/41 27/18/27 
f 41/26/41 45/30/45 46/31/46 
f 46/31/46 43/28/43 41/26/41 
f 30/21/30 32/23/32 47/32/47 
f 47/32/47 45/30/45 30/21/30 
f 45/30/45 47/32/47 48/33/48 
f 48/33/48 46/31/46 45/30/45 
f 32/23/32 34/25/34 49/34/49 
f 49/34/49 47/32/47 32/23/32 
f 47/32/47 49/34/49 50/35/50 
f 50/35/50 48/33/48 47/32/47 
f 34/19/34 36/18/36 51/26/51 
f 51/26/51 49/27/49 34/19/34 
f 49/27/49 51/26/51 52/28/52 
f 52/28/52 50/29/50 49/27/49 
f 36/18/36 38/21/38 53/30/53 
f 53/30/53 51/26/51 36/18/36 
f 51/26/51 53/30/53 54/31/54 
f 54/31/54 52/28/52 51/26/51 
f 38/21/38 40/23/40 55/32/55 
f 55/32/55 53/30/53 38/21/38 
f 53/30/53 55/32/55 56/33/56 
f 56/33/56 54/31/54 53/30/53 
f 40/23/40 28/25/28 42/34/42 
f 42/34/42 55/32/55 40/23/40 
f 55/32/55 42/34/42 44/35/44 
f 44/35/44 56/33/56 55/32/55 
f 44/29/44 43/28/43 57/36/57 
f 57/36/57 58/37/58 44/29/44 
f 58/37/58 57/36/57 59/38/59 
f 59/38/59 59/39/59 58/37/58 
f 43/28/43 46/31/46 60/40/60 
f 60/40/60 57/36/57 43/28/43 
f 57/36/57 60/40/60 59/41/59 
f 59/41/59 59/38/59 57/36/57 
f 46/31/46 48/33/48 61/42/61 
f 61/42/61 60/40/60 46/31/46 
f 60/40/60 61/42/61 59/43/59 
f 59/43/59 59/41/59 60/40/60 
f 48/33/48 50/35/50 62/44/62 
f 62/44/62 61/42/61 48/33/48 
f 61/42/61 62/44/62 59/45/59 
f 59/45/59 59/43/59 61/42/61 
f 50/29/50 52/28/52 63/36/63 
f 63/36/63 62/37/62 50/29/50 
f 62/37/62 63/36/63 59/38/59 
f 59/38/59 59/39/59 62/37/62 
f 52/28/52 54/31/54 64/40/64 
f 64/40/64 63/36/63 52/28/52 
f 63/36/63 64/40/64 59/41/59 
f 59/41/59 59/38/59 63/36/63 
f 54/31/54 56/33/56 65/42/65 
f 65/42/65 64/40/64 54/31/54 
f 64/40/64 65/42/65 59/43/59 
f 59/43/59 59/41/59 64/40/64 
f 56/33/56 44/35/44 58/44/58 
f 58/44/58 65/42/65 56/33/56 
f 65/42/65 58/44/58 59/45/59 
f 59/45/59 59/43/59 65/42/65 
f 66/21/66 67/46/67 68/47/68 
f 68/47/68 69/48/69 66/21/66 
f 69/48/69 68/47/68 70/49/70 
f 70/49/70 71/50/71 69/48/69 
f 67/46/67 72/23/72 73/51/73 
f 73/51/73 68/47/68 67/46/67 
f 68/47/68 73/51/73 74/52/74 
f 74/52/74 70/49/70 68/47/68 
f 72/23/72 75/53/75 76/54/76 
f 76/54/76 73/51/73 72/23/72 
f 73/51/73 76/54/76 77/55/77 
f 77/55/77 74/52/74 73/51/73 
f 75/53/75 66/25/66 69/56/69 
f 69/56/69 76/54/76 75/53/75 
f 76/54/76 69/56/69 71/57/71 
f 71/57/71 77/55/77 76/54/76 
f 71/50/71 70/49/70 78/58/78 
f 78/58/78 79/59/79 71/50/71 
f 79/59/79 78/58/78 80/60/80 
f 80/60/80 34/41/81 79/59/79 
f 70/49/70 74/52/74 81/61/82 
f 81/61/82 78/58/78 70/49/70 
f 78/58/78 81/61/82 82/43/83 
f 82/43/83 80/60/80 78/58/78 
f 74/52/74 77/55/77 83/62/84 
f 83/62/84 81/61/82 74/52/74 
f 81/61/82 83/62/84 84/63/85 
f 84/63/85 82/43/83 81/61/82 
f 77/55/77 71/57/71 79/64/79 
f 79/64/79 83/62/84 77/55/77 
f 83/62/84 79/64/79 34/45/81 
f 34/45/81 84/63/85 83/62/84 
f 85/43/86 86/60/87 87/65/88 
f 87/65/88 88/66/89 85/43/86 
f 88/66/89 87/65/88 89/67/90 
f 89/67/90 90/68/91 88/66/89 
f 86/60/87 91/41/92 92/69/93 
f 92/69/93 87/65/88 86/60/87 
f 87/65/88 92/69/93 93/70/94 
f 93/70/94 89/67/90 87/65/88 
f 91/45/92 94/63/95 95/71/96 
f 95/71/96 92/72/93 91/45/92 
f 92/72/93 95/71/96 96/73/97 
f 96/73/97 93/74/94 92/72/93 
f 94/63/95 85/43/86 88/66/89 
f 88/66/89 95/71/96 94/63/95 
f 95/71/96 88/66/89 90/68/91 
f 90/68/91 96/73/97 95/71/96 
f 90/68/91 89/67/90 97/75/98 
f 97/75/98 98/76/99 90/68/91 
f 98/76/99 97/75/98 99/46/100 
f 99/46/100 100/23/101 98/76/99 
f 89/67/90 93/70/94 101/77/102 
f 101/77/102 97/75/98 89/67/90 
f 97/75/98 101/77/102 102/21/103 
f 102/21/103 99/46/100 97/75/98 
f 93/74/94 96/73/97 103/78/104 
f 103/78/104 101/79/102 93/74/94 
f 101/79/102 103/78/104 104/53/105 
f 104/53/105 102/25/103 101/79/102 
f 96/73/97 90/68/91 98/76/99 
f 98/76/99 103/78/104 96/73/97 
f 103/78/104 98/76/99 100/23/101 
f 100/23/101 104/53/105 103/78/104 
f 105/21/106 105/46/106 106/49/107 
f 106/49/107 107/50/108 105/21/106 
f 107/50/108 106/49/107 108/60/109 
f 108/60/109 109/41/110 107/50/108 
f 105/46/106 105/23/106 110/52/111 
f 110/52/111 106/49/107 105/46/106 
f 106/49/107 110/52/111 111/43/112 
f 111/43/112 108/60/109 106/49/107 
f 105/23/106 105/53/106 112/55/113 
f 112/55/113 110/52/111 105/23/106 
f 110/52/111 112/55/113 113/63/114 
f 113/63/114 111/43/112 110/52/111 
f 105/53/106 105/25/106 114/57/115 
f 114/57/115 112/55/113 105/53/106 
f 112/55/113 114/57/115 115/45/116 
f 115/45/116 113/63/114 112/55/113 
f 105/21/106 105/46/106 116/49/117 
f 116/49/117 114/50/115 105/21/106 
f 114/50/115 116/49/117 117/60/118 
f 117/60/118 115/41/116 114/50/115 
f 105/46/106 105/23/106 118/52/119 
f 118/52/119 116/49/117 105/46/106 
f 116/49/117 118/52/119 119/43/120 
f 119/43/120 117/60/118 116/49/117 
f 105/23/106 105/53/106 120/55/121 
f 120/55/121 118/52/119 105/23/106 
f 118/52/119 120/55/121 121/63/122 
f 121/63/122 119/43/120 118/52/119 
f 105/53/106 105/25/106 107/57/108 
f 107/57/108 120/55/121 105/53/106 
f 120/55/121 107/57/108 109/45/110 
f 109/45/110 121/63/122 120/55/121 
f 109/21/110 108/46/109 122/49/123 
f 122/49/123 123/50/124 109/21/110 
f 123/50/124 122/49/123 124/60/125 
f 124/60/125 125/41/126 123/50/124 
f 108/46/109 111/23/112 126/52/127 
f 126/52/127 122/49/123 108/46/109 
f 122/49/123 126/52/127 127/43/128 
f 127/43/128 124/60/125 122/49/123 
f 111/23/112 113/53/114 128/55/129 
f 128/55/129 126/52/127 111/23/112 
f 126/52/127 128/55/129 129/63/130 
f 129/63/130 127/43/128 126/52/127 
f 113/53/114 115/25/116 130/57/131 
f 130/57/131 128/55/129 113/53/114 
f 128/55/129 130/57/131 131/45/132 
f 131/45/132 129/63/130 128/55/129 
f 115/21/116 117/46/118 132/49/133 
f 132/49/133 130/50/131 115/21/116 
f 130/50/131 132/49/133 133/60/134 
f 133/60/134 131/41/132 130/50/131 
f 117/46/118 119/23/120 134/52/135 
f 134/52/135 132/49/133 117/46/118 
f 132/49/133 134/52/135 135/43/136 
f 135/43/136 133/60/134 132/49/133 
f 119/23/120 121/53/122 136/55/137 
f 136/55/137 134/52/135 119/23/120 
f 134/52/135 136/55/137 137/63/138 
f 137/63/138 135/43/136 134/52/135 
f 121/53/122 109/25/110 123/57/124 
f 123/57/124 136/55/137 121/53/122 
f 136/55/137 123/57/124 125/45/126 
f 125/45/126 137/63/138 136/55/137 
# 256 faces

